<svg xmlns="http://www.w3.org/2000/svg" width="25" height="25" viewBox="0 0 25 25" shape-rendering="crispEdges">
  <title>Pebbleboy pixel-art handheld</title>
  <!-- Integer coordinates keep every edge on the launcher's pixel grid. -->
  <path fill="#000" d="M5 1h15v1h1v1h1v18h-1v2h-2v1H5v-1H4V2h1z"/>
  <path fill="#fff" d="M6 3h13v1h1v16h-1v2H6z"/>
  <!-- Screen bezel and reflection. -->
  <path fill="#000" d="M7 5h12v8H8v-1H7z"/>
  <path fill="#fff" d="M9 7h8v4H9z"/>
  <path fill="#000" d="M10 8h2v1h-1v1h-1z"/>
  <!-- Direction pad and A/B buttons. -->
  <path fill="#000" d="M9 14h2v2h2v2h-2v2H9v-2H7v-2h2zM17 14h2v2h-2zM14 17h2v2h-2z"/>
</svg>
